<svg xmlns="http://www.w3.org/2000/svg" viewBox="0 0 160 140" role="img" aria-label="EarnedStar logo stacked">
  <defs><radialGradient id="grad-logo-s-reversed" cx="38%" cy="32%" r="68%">
    <stop offset="0%" stop-color="#FFFFFF"/><stop offset="55%" stop-color="#F8FAFC"/><stop offset="100%" stop-color="#E2E8F0"/>
  </radialGradient></defs>
  <g transform="translate(30,0) scale(1)">
    <path d="M50.00,6.00L77.23,35.38L68.04,81.96L31.96,81.96L22.77,35.38Z" fill="url(#grad-logo-s-reversed)"/>
  <path d="M50,6 L61,35 L50,65 Z" fill="rgba(255,255,255,0.10)"/>
  <path d="M50,6 L39,35 L50,65 Z" fill="rgba(0,0,0,0.10)"/>
  <path d="M91,35 L68,54 L61,35 Z" fill="rgba(255,255,255,0.12)"/>
  <path d="M9,35 L32,54 L39,35 Z" fill="rgba(0,0,0,0.08)"/>
  <path d="M77,82 L50,65 L68,54 Z" fill="rgba(255,255,255,0.07)"/>
  <path d="M23,82 L50,65 L32,54 Z" fill="rgba(0,0,0,0.07)"/>
  <path d="M50,6 L61,35 L44,26 Z" fill="rgba(255,255,255,0.22)"/>
  <line x1="50" y1="6" x2="61" y2="35" stroke="rgba(255,255,255,0.18)" stroke-width="0.7"/>
  <line x1="50" y1="6" x2="39" y2="35" stroke="rgba(0,0,0,0.18)" stroke-width="0.7"/>
  <line x1="61" y1="35" x2="50" y2="65" stroke="rgba(0,0,0,0.12)" stroke-width="0.7"/>
  <line x1="91" y1="35" x2="68" y2="54" stroke="rgba(255,255,255,0.14)" stroke-width="0.7"/>
  <line x1="9" y1="35" x2="32" y2="54" stroke="rgba(0,0,0,0.10)" stroke-width="0.7"/>

    <path d="M50.00,6.00L77.23,35.38L68.04,81.96L31.96,81.96L22.77,35.38Z" fill="none" stroke="rgba(255,255,255,0.20)" stroke-width="0.8"/>
    <circle cx="50" cy="50" r="17" fill="white" opacity="0.97"/>
    <circle cx="50" cy="50" r="17" fill="none" stroke="#F59E0B" stroke-width="1.8" opacity="0.85"/><path d="M41 50 L47 56 L59 44" fill="none" stroke="#F59E0B" stroke-width="3.5" stroke-linecap="round" stroke-linejoin="round"/>
  </g>
  <text x="80" y="118" text-anchor="middle" font-family="Plus Jakarta Sans,Arial,sans-serif" font-size="22" font-weight="800" fill="#FFFFFF">Earned</text>
  <text x="128" y="118" text-anchor="middle" font-family="Plus Jakarta Sans,Arial,sans-serif" font-size="22" font-weight="800" fill="#F59E0B">Star</text>
</svg>
